<svg xmlns="http://www.w3.org/2000/svg" width="20" height="17" fill="currentColor" viewBox="0 0 20 17"><path fill="currentColor" d="M6.292 16.25c7.545 0 11.673-6.252 11.673-11.673q0-.266-.012-.531A8.3 8.3 0 0 0 20 1.922a8.1 8.1 0 0 1-2.355.644A4.13 4.13 0 0 0 19.449.297a8.3 8.3 0 0 1-2.605.996A4.108 4.108 0 0 0 9.85 5.034 11.65 11.65 0 0 1 1.394.75a4.11 4.11 0 0 0 1.27 5.476 4.1 4.1 0 0 1-1.86-.512v.05a4.1 4.1 0 0 0 3.293 4.024 4.1 4.1 0 0 1-1.851.07 4.11 4.11 0 0 0 3.831 2.852A8.23 8.23 0 0 1 0 14.408a11.64 11.64 0 0 0 6.292 1.843"/></svg>